<?xml version="1.0" encoding="utf-8"?>
<!-- Generator: Adobe Illustrator 21.0.0, SVG Export Plug-In . SVG Version: 6.00 Build 0)  -->
<svg version="1.1" id="图层_1" xmlns="http://www.w3.org/2000/svg" xmlns:xlink="http://www.w3.org/1999/xlink" x="0px" y="0px"
	 viewBox="0 0 200 200" style="enable-background:new 0 0 200 200;" xml:space="preserve">
<style type="text/css">
	.st0{fill:#66CCFF;}
	.st1{fill:#4E5F80;}
</style>
<path class="st0" d="M72.6,180.2l-14.1-14.1l39-30.6l0,0c0,0,8.2-6.6,19.8-15.8c13.3-10.6,26.7-21.2,40.1-31.7l-7.7-9.8
	c-27,21.1-59.7,47.3-60,47.6l-40.2,31.5l-6.9-6.9l31.4-40.1c0.1-0.1,26.5-32.9,47.6-60l-9.8-7.7c-10.5,13.4-21.1,26.8-31.7,40.1
	c-5.3,6.6-10.5,13.2-15.8,19.8l0,0l-30.6,39l-14.1-14.1l-8.8,8.8L63.8,189L72.6,180.2L72.6,180.2z"/>
<path class="st1" d="M119.3,9.1C113.5,3.3,105.6,0,97.4,0C85.4,0,74.4,6.9,69.2,17.9h0c-0.1,0.3-29,59.6-54.7,114.7l-3.6,3.6
	c-7,7-11,16.5-10.9,26.5C0,183.2,16.7,200,37.3,200c0,0,0.1,0,0.1,0c9.9,0,19.4-3.9,26.5-10.9l3.6-3.6
	c27.5-12.8,55.9-26.3,77.7-36.8c11.5-5.5,22.9-11,34.3-16.6l2-1l0.5-0.2l0.1-0.1l0,0h0l0,0l0,0h0l0,0l0,0
	c10.9-5.1,17.9-16.1,17.9-28.2c0-8.2-3.3-16.1-9.1-21.9l-4.4,4.4l4.4-4.4c-7.1-7.1-17.1-10.3-26.9-8.7c0.2-1.6,0.4-3.2,0.4-4.8
	c0-8.4-3.3-16.4-9.2-22.3c-5.9-5.9-13.9-9.3-22.3-9.2c-1.6,0-3.2,0.2-4.8,0.4C129.6,26.2,126.4,16.2,119.3,9.1L119.3,9.1z
	 M132.8,48.1c5.1,0,9.9,2,13.5,5.6c3.8,3.8,5.6,8.6,5.6,13.5c0,5.9-2.7,11.5-7.3,15.1c0,0-0.1,0.1-0.1,0.1c-0.6,0.5-1.1,1.1-1.5,1.7
	c-0.4,0.7-0.6,1.5-0.7,2.3l0,0c-0.3,2.5,0.9,5,3.1,6.2c1.4,0.8,3.1,1,4.7,0.6c0.7-0.2,1.3-0.5,2-1c0.1-0.1,0.2-0.1,0.2-0.1l5.2-4.1
	c7.4-5.8,18-5.2,24.6,1.5c3.7,3.7,5.4,8.4,5.4,13.1c0,6.9-3.8,13.7-10.8,16.9l-0.1,0c-0.2,0.1-60.1,29.3-115.5,55.1l-1.8,1.2
	l-4.4,4.4c-4.7,4.7-11,7.3-17.6,7.3c-13.7,0-24.9-11.1-24.9-24.8c0,0,0-0.1,0-0.1c0-6.6,2.6-13,7.3-17.6l4.4-4.4l1.2-1.8
	C38.3,111.1,52,82.2,62.6,60.3c5.5-11.4,11-22.9,16.6-34.3l1-2l0.2-0.5l0.1-0.3v0c3.3-7,10-10.7,16.9-10.7c4.9,0,9.6,2,13.1,5.4
	c3.6,3.6,5.4,8.4,5.4,13.2c0,4.1-1.4,8.2-3.9,11.4l-4,5.2c-0.1,0.2-0.2,0.4-0.3,0.6c-0.3,0.5-0.6,1-0.8,1.6c-0.9,3.3,1,6.7,4.3,7.7
	c1.6,0.4,3.3,0.2,4.7-0.6c0.5-0.3,0.9-0.7,1.4-1.1c0.2-0.2,0.4-0.2,0.5-0.4C121.4,50.8,126.9,48.1,132.8,48.1L132.8,48.1z"/>
</svg>
