<?xml version="1.0" encoding="utf-8"?>
<!-- Generator: Adobe Illustrator 21.0.0, SVG Export Plug-In . SVG Version: 6.00 Build 0)  -->
<svg version="1.1" id="图层_1" xmlns="http://www.w3.org/2000/svg" xmlns:xlink="http://www.w3.org/1999/xlink" x="0px" y="0px"
	 viewBox="0 0 200 200" style="enable-background:new 0 0 200 200;" xml:space="preserve">
<style type="text/css">
	.st0{fill:#66CCFF;}
	.st1{fill:#FFFFFF;}
</style>
<path class="st0" d="M179.5,186h-152c-6.6,0-12-5.4-12-12V26c0-6.6,5.4-12,12-12h152c6.6,0,12,5.4,12,12v148
	C191.5,180.6,186.1,186,179.5,186z"/>
<path class="st1" d="M166,154.8c0,0-24.4-15.5-30.7-19.2c-6.3-3.6-12.3,2.2-12.3,2.2c-11.2,7.7-10,6.7-21.2,0.7
	c-11.2-6.1-29-27.2-34.8-35.5c-5.7-8.3,2.2-15.4,4.6-20.3c2.5-4.9-0.3-9.1-0.3-9.1L52.8,46.8c0,0-0.6-1.7-3.6-3.5
	c-3.1-1.9-14,5-20.7,15.3c-6.7,10.3,10.2,41.8,10.2,41.8c30.8,51.2,67,66.7,91,77.6s33.1-10.5,36.6-15.8
	C169.8,156.9,166,154.8,166,154.8z M111.2,20.4l22.3,22.3L100,76.1l22.3,22.3L155.7,65L178,87.3V20.4H111.2z"/>
</svg>
